<svg width="238" height="30" viewBox="0 0 238 30" fill="none" xmlns="http://www.w3.org/2000/svg">
<g clip-path="url(#clip0_9413_1317)">
<path d="M234.551 0H3.44928C1.54429 0 0 1.34315 0 3V27C0 28.6569 1.54429 30 3.44928 30H234.551C236.456 30 238 28.6569 238 27V3C238 1.34315 236.456 0 234.551 0Z" fill="#2C2925"/>
<path d="M43.2557 9.36364V21H41.1477V9.36364H43.2557ZM47.5043 15.8864V21H45.4474V12.2727H47.4134V13.7557H47.5156C47.7164 13.267 48.0365 12.8788 48.4759 12.5909C48.919 12.303 49.4664 12.1591 50.1179 12.1591C50.7202 12.1591 51.2448 12.2879 51.6918 12.5455C52.1425 12.803 52.491 13.1761 52.7372 13.6648C52.9872 14.1534 53.1103 14.7462 53.1065 15.4432V21H51.0497V15.7614C51.0497 15.178 50.8982 14.7216 50.5952 14.392C50.2959 14.0625 49.8812 13.8977 49.3509 13.8977C48.991 13.8977 48.6709 13.9773 48.3906 14.1364C48.1141 14.2917 47.8963 14.517 47.7372 14.8125C47.5819 15.108 47.5043 15.4659 47.5043 15.8864ZM62.0952 14.5795L60.2202 14.7841C60.1671 14.5947 60.0743 14.4167 59.9418 14.25C59.813 14.0833 59.6387 13.9489 59.419 13.8466C59.1993 13.7443 58.9304 13.6932 58.6122 13.6932C58.1842 13.6932 57.8243 13.786 57.5327 13.9716C57.2448 14.1572 57.1027 14.3977 57.1065 14.6932C57.1027 14.947 57.1955 15.1534 57.3849 15.3125C57.5781 15.4716 57.8963 15.6023 58.3395 15.7045L59.8281 16.0227C60.6539 16.2008 61.2675 16.483 61.669 16.8693C62.0743 17.2557 62.2789 17.7614 62.2827 18.3864C62.2789 18.9356 62.1179 19.4205 61.7997 19.8409C61.4853 20.2576 61.0478 20.5833 60.4872 20.8182C59.9266 21.053 59.2827 21.1705 58.5554 21.1705C57.4872 21.1705 56.6274 20.947 55.9759 20.5C55.3243 20.0492 54.9361 19.4223 54.8111 18.6193L56.8168 18.4261C56.9077 18.8201 57.1009 19.1174 57.3963 19.3182C57.6918 19.5189 58.0762 19.6193 58.5497 19.6193C59.0384 19.6193 59.4304 19.5189 59.7259 19.3182C60.0251 19.1174 60.1747 18.8693 60.1747 18.5739C60.1747 18.3239 60.0781 18.1174 59.8849 17.9545C59.6955 17.7917 59.4001 17.6667 58.9986 17.5795L57.5099 17.267C56.6728 17.0928 56.0535 16.7992 55.652 16.3864C55.2505 15.9697 55.0516 15.4432 55.0554 14.8068C55.0516 14.2689 55.1974 13.803 55.4929 13.4091C55.7921 13.0114 56.2069 12.7045 56.7372 12.4886C57.2713 12.2689 57.8868 12.1591 58.5838 12.1591C59.6065 12.1591 60.4115 12.3769 60.9986 12.8125C61.5895 13.2481 61.955 13.8371 62.0952 14.5795ZM68.3366 12.2727V13.8636H63.3196V12.2727H68.3366ZM64.5582 10.1818H66.6151V18.375C66.6151 18.6515 66.6567 18.8636 66.7401 19.0114C66.8272 19.1553 66.9408 19.2538 67.081 19.3068C67.2211 19.3598 67.3764 19.3864 67.5469 19.3864C67.6757 19.3864 67.7931 19.3769 67.8991 19.358C68.009 19.339 68.0923 19.322 68.1491 19.3068L68.4957 20.9148C68.3859 20.9527 68.2287 20.9943 68.0241 21.0398C67.8234 21.0852 67.5772 21.1117 67.2855 21.1193C66.7704 21.1345 66.3063 21.0568 65.8935 20.8864C65.4806 20.7121 65.1529 20.4432 64.9105 20.0795C64.6719 19.7159 64.5545 19.2614 64.5582 18.7159V10.1818ZM72.5682 21.1761C72.0152 21.1761 71.517 21.0777 71.0739 20.8807C70.6345 20.6799 70.286 20.3845 70.0284 19.9943C69.7746 19.6042 69.6477 19.1231 69.6477 18.5511C69.6477 18.0587 69.7386 17.6515 69.9205 17.3295C70.1023 17.0076 70.3504 16.75 70.6648 16.5568C70.9792 16.3636 71.3333 16.2178 71.7273 16.1193C72.125 16.017 72.536 15.9432 72.9602 15.8977C73.4716 15.8447 73.8864 15.7973 74.2045 15.7557C74.5227 15.7102 74.7538 15.642 74.8977 15.5511C75.0455 15.4564 75.1193 15.3106 75.1193 15.1136V15.0795C75.1193 14.6515 74.9924 14.3201 74.7386 14.0852C74.4848 13.8504 74.1193 13.733 73.642 13.733C73.1383 13.733 72.7386 13.8428 72.4432 14.0625C72.1515 14.2822 71.9545 14.5417 71.8523 14.8409L69.9318 14.5682C70.0833 14.0379 70.3333 13.5947 70.6818 13.2386C71.0303 12.8788 71.4564 12.6098 71.9602 12.4318C72.464 12.25 73.0208 12.1591 73.6307 12.1591C74.0511 12.1591 74.4697 12.2083 74.8864 12.3068C75.303 12.4053 75.6837 12.5682 76.0284 12.7955C76.3731 13.0189 76.6496 13.3239 76.858 13.7102C77.0701 14.0966 77.1761 14.5795 77.1761 15.1591V21H75.1989V19.8011H75.1307C75.0057 20.0436 74.8295 20.2708 74.6023 20.483C74.3788 20.6913 74.0966 20.8598 73.7557 20.9886C73.4186 21.1136 73.0227 21.1761 72.5682 21.1761ZM73.1023 19.6648C73.5152 19.6648 73.8731 19.5833 74.1761 19.4205C74.4792 19.2538 74.7121 19.0341 74.875 18.7614C75.0417 18.4886 75.125 18.1913 75.125 17.8693V16.8409C75.0606 16.8939 74.9508 16.9432 74.7955 16.9886C74.6439 17.0341 74.4735 17.0739 74.2841 17.108C74.0947 17.142 73.9072 17.1723 73.7216 17.1989C73.536 17.2254 73.375 17.2481 73.2386 17.267C72.9318 17.3087 72.6572 17.3769 72.4148 17.4716C72.1723 17.5663 71.9811 17.6989 71.8409 17.8693C71.7008 18.036 71.6307 18.2519 71.6307 18.517C71.6307 18.8958 71.7689 19.1818 72.0455 19.375C72.322 19.5682 72.6742 19.6648 73.1023 19.6648ZM81.3011 9.36364V21H79.2443V9.36364H81.3011ZM85.473 9.36364V21H83.4162V9.36364H85.473ZM102.045 15.1818C102.045 16.4356 101.811 17.5095 101.341 18.4034C100.875 19.2936 100.239 19.9754 99.4318 20.4489C98.6288 20.9223 97.7178 21.1591 96.6989 21.1591C95.6799 21.1591 94.767 20.9223 93.9602 20.4489C93.1572 19.9716 92.5208 19.2879 92.0511 18.3977C91.5852 17.5038 91.3523 16.4318 91.3523 15.1818C91.3523 13.928 91.5852 12.8561 92.0511 11.9659C92.5208 11.072 93.1572 10.3883 93.9602 9.91477C94.767 9.44129 95.6799 9.20455 96.6989 9.20455C97.7178 9.20455 98.6288 9.44129 99.4318 9.91477C100.239 10.3883 100.875 11.072 101.341 11.9659C101.811 12.8561 102.045 13.928 102.045 15.1818ZM99.9261 15.1818C99.9261 14.2992 99.7879 13.5549 99.5114 12.9489C99.2386 12.339 98.8598 11.8788 98.375 11.5682C97.8902 11.2538 97.3314 11.0966 96.6989 11.0966C96.0663 11.0966 95.5076 11.2538 95.0227 11.5682C94.5379 11.8788 94.1572 12.339 93.8807 12.9489C93.608 13.5549 93.4716 14.2992 93.4716 15.1818C93.4716 16.0644 93.608 16.8106 93.8807 17.4205C94.1572 18.0265 94.5379 18.4867 95.0227 18.8011C95.5076 19.1117 96.0663 19.267 96.6989 19.267C97.3314 19.267 97.8902 19.1117 98.375 18.8011C98.8598 18.4867 99.2386 18.0265 99.5114 17.4205C99.7879 16.8106 99.9261 16.0644 99.9261 15.1818ZM113.999 13.2898H111.874C111.813 12.9413 111.701 12.6326 111.538 12.3636C111.375 12.0909 111.173 11.8598 110.93 11.6705C110.688 11.4811 110.411 11.339 110.101 11.2443C109.794 11.1458 109.463 11.0966 109.107 11.0966C108.474 11.0966 107.913 11.2557 107.425 11.5739C106.936 11.8883 106.554 12.3504 106.277 12.9602C106 13.5663 105.862 14.3068 105.862 15.1818C105.862 16.072 106 16.822 106.277 17.4318C106.557 18.0379 106.94 18.4962 107.425 18.8068C107.913 19.1136 108.472 19.267 109.101 19.267C109.449 19.267 109.775 19.2216 110.078 19.1307C110.385 19.036 110.66 18.8977 110.902 18.7159C111.148 18.5341 111.355 18.3106 111.521 18.0455C111.692 17.7803 111.809 17.4773 111.874 17.1364L113.999 17.1477C113.919 17.7008 113.747 18.2197 113.482 18.7045C113.22 19.1894 112.877 19.6174 112.453 19.9886C112.029 20.3561 111.533 20.6439 110.964 20.8523C110.396 21.0568 109.766 21.1591 109.072 21.1591C108.05 21.1591 107.137 20.9223 106.334 20.4489C105.531 19.9754 104.898 19.2917 104.436 18.3977C103.974 17.5038 103.743 16.4318 103.743 15.1818C103.743 13.928 103.976 12.8561 104.442 11.9659C104.908 11.072 105.542 10.3883 106.345 9.91477C107.148 9.44129 108.057 9.20455 109.072 9.20455C109.72 9.20455 110.322 9.29545 110.879 9.47727C111.436 9.65909 111.932 9.92614 112.368 10.2784C112.804 10.6269 113.161 11.0549 113.442 11.5625C113.726 12.0663 113.911 12.642 113.999 13.2898ZM118.037 9.36364V21H115.929V9.36364H118.037ZM125.783 21H123.533L127.629 9.36364H130.232L134.334 21H132.084L128.976 11.75H128.885L125.783 21ZM125.857 16.4375H131.993V18.1307H125.857V16.4375ZM137.974 9.36364V21H135.866V9.36364H137.974ZM144.226 21V9.36364H148.68C149.521 9.36364 150.22 9.49621 150.777 9.76136C151.338 10.0227 151.756 10.3807 152.033 10.8352C152.313 11.2898 152.453 11.8049 152.453 12.3807C152.453 12.8542 152.362 13.2595 152.18 13.5966C151.999 13.9299 151.754 14.2008 151.447 14.4091C151.141 14.6174 150.798 14.767 150.419 14.858V14.9716C150.832 14.9943 151.228 15.1212 151.607 15.3523C151.989 15.5795 152.302 15.9015 152.544 16.3182C152.786 16.7348 152.908 17.2386 152.908 17.8295C152.908 18.4318 152.762 18.9735 152.47 19.4545C152.179 19.9318 151.739 20.3087 151.152 20.5852C150.565 20.8617 149.826 21 148.936 21H144.226ZM146.334 19.2386H148.601C149.366 19.2386 149.917 19.0928 150.254 18.8011C150.595 18.5057 150.766 18.1269 150.766 17.6648C150.766 17.3201 150.68 17.0095 150.51 16.733C150.339 16.4527 150.097 16.233 149.783 16.0739C149.468 15.911 149.093 15.8295 148.658 15.8295H146.334V19.2386ZM146.334 14.3125H148.419C148.783 14.3125 149.11 14.2462 149.402 14.1136C149.694 13.9773 149.923 13.786 150.089 13.5398C150.26 13.2898 150.345 12.9943 150.345 12.6534C150.345 12.2027 150.186 11.8314 149.868 11.5398C149.554 11.2481 149.086 11.1023 148.464 11.1023H146.334V14.3125ZM156.707 9.36364V21H154.651V9.36364H156.707ZM164.385 17.3295V12.2727H166.442V21H164.447V19.4489H164.357C164.16 19.9375 163.836 20.3371 163.385 20.6477C162.938 20.9583 162.387 21.1136 161.732 21.1136C161.16 21.1136 160.654 20.9867 160.214 20.733C159.779 20.4754 159.438 20.1023 159.192 19.6136C158.946 19.1212 158.822 18.5265 158.822 17.8295V12.2727H160.879V17.5114C160.879 18.0644 161.031 18.5038 161.334 18.8295C161.637 19.1553 162.035 19.3182 162.527 19.3182C162.83 19.3182 163.124 19.2443 163.408 19.0966C163.692 18.9489 163.925 18.7292 164.107 18.4375C164.292 18.142 164.385 17.7727 164.385 17.3295ZM172.42 21.1705C171.545 21.1705 170.79 20.9886 170.153 20.625C169.521 20.2576 169.034 19.7386 168.693 19.0682C168.352 18.3939 168.182 17.6004 168.182 16.6875C168.182 15.7898 168.352 15.0019 168.693 14.3239C169.038 13.642 169.519 13.1117 170.136 12.733C170.754 12.3504 171.479 12.1591 172.312 12.1591C172.85 12.1591 173.358 12.2462 173.835 12.4205C174.316 12.5909 174.741 12.8561 175.108 13.2159C175.479 13.5758 175.771 14.0341 175.983 14.5909C176.195 15.1439 176.301 15.803 176.301 16.5682V17.1989H169.148V15.8125H174.33C174.326 15.4186 174.241 15.0682 174.074 14.7614C173.907 14.4508 173.674 14.2064 173.375 14.0284C173.08 13.8504 172.735 13.7614 172.341 13.7614C171.92 13.7614 171.551 13.8636 171.233 14.0682C170.915 14.2689 170.667 14.5341 170.489 14.8636C170.314 15.1894 170.225 15.5473 170.222 15.9375V17.1477C170.222 17.6553 170.314 18.0909 170.5 18.4545C170.686 18.8144 170.945 19.0909 171.278 19.2841C171.612 19.4735 172.002 19.5682 172.449 19.5682C172.748 19.5682 173.019 19.5265 173.261 19.4432C173.504 19.3561 173.714 19.2292 173.892 19.0625C174.07 18.8958 174.205 18.6894 174.295 18.4432L176.216 18.6591C176.095 19.1667 175.864 19.6098 175.523 19.9886C175.186 20.3636 174.754 20.6553 174.227 20.8636C173.701 21.0682 173.098 21.1705 172.42 21.1705ZM178.041 24.2727V12.2727H180.064V13.7159H180.183C180.289 13.5038 180.439 13.2784 180.632 13.0398C180.825 12.7973 181.087 12.5909 181.416 12.4205C181.746 12.2462 182.166 12.1591 182.678 12.1591C183.352 12.1591 183.96 12.3314 184.501 12.6761C185.047 13.017 185.479 13.5227 185.797 14.1932C186.119 14.8598 186.28 15.678 186.28 16.6477C186.28 17.6061 186.123 18.4205 185.808 19.0909C185.494 19.7614 185.066 20.2727 184.524 20.625C183.982 20.9773 183.369 21.1534 182.683 21.1534C182.183 21.1534 181.768 21.0701 181.439 20.9034C181.109 20.7367 180.844 20.536 180.643 20.3011C180.446 20.0625 180.293 19.8371 180.183 19.625H180.098V24.2727H178.041ZM180.058 16.6364C180.058 17.2008 180.138 17.6951 180.297 18.1193C180.46 18.5436 180.693 18.875 180.996 19.1136C181.303 19.3485 181.674 19.4659 182.109 19.4659C182.564 19.4659 182.945 19.3447 183.251 19.1023C183.558 18.8561 183.789 18.5208 183.945 18.0966C184.104 17.6686 184.183 17.1818 184.183 16.6364C184.183 16.0947 184.106 15.6136 183.95 15.1932C183.795 14.7727 183.564 14.4432 183.257 14.2045C182.95 13.9659 182.568 13.8466 182.109 13.8466C181.67 13.8466 181.297 13.9621 180.99 14.1932C180.683 14.4242 180.45 14.7481 180.291 15.1648C180.136 15.5814 180.058 16.072 180.058 16.6364ZM188.041 21V12.2727H190.036V13.7273H190.126C190.286 13.2235 190.558 12.8352 190.945 12.5625C191.335 12.286 191.78 12.1477 192.28 12.1477C192.393 12.1477 192.52 12.1534 192.661 12.1648C192.804 12.1723 192.924 12.1856 193.018 12.2045V14.0966C192.931 14.0663 192.793 14.0398 192.604 14.017C192.418 13.9905 192.238 13.9773 192.064 13.9773C191.689 13.9773 191.352 14.0587 191.053 14.2216C190.757 14.3807 190.524 14.6023 190.354 14.8864C190.183 15.1705 190.098 15.4981 190.098 15.8693V21H188.041ZM194.385 21V12.2727H196.442V21H194.385ZM195.419 11.0341C195.093 11.0341 194.813 10.9261 194.578 10.7102C194.343 10.4905 194.226 10.2273 194.226 9.92045C194.226 9.60985 194.343 9.34659 194.578 9.13068C194.813 8.91098 195.093 8.80114 195.419 8.80114C195.749 8.80114 196.029 8.91098 196.26 9.13068C196.495 9.34659 196.612 9.60985 196.612 9.92045C196.612 10.2273 196.495 10.4905 196.26 10.7102C196.029 10.9261 195.749 11.0341 195.419 11.0341ZM200.614 15.8864V21H198.557V12.2727H200.523V13.7557H200.625C200.826 13.267 201.146 12.8788 201.585 12.5909C202.028 12.303 202.576 12.1591 203.227 12.1591C203.83 12.1591 204.354 12.2879 204.801 12.5455C205.252 12.803 205.6 13.1761 205.847 13.6648C206.097 14.1534 206.22 14.7462 206.216 15.4432V21H204.159V15.7614C204.159 15.178 204.008 14.7216 203.705 14.392C203.405 14.0625 202.991 13.8977 202.46 13.8977C202.1 13.8977 201.78 13.9773 201.5 14.1364C201.223 14.2917 201.006 14.517 200.847 14.8125C200.691 15.108 200.614 15.4659 200.614 15.8864ZM212.665 12.2727V13.8636H207.648V12.2727H212.665ZM208.886 10.1818H210.943V18.375C210.943 18.6515 210.985 18.8636 211.068 19.0114C211.155 19.1553 211.269 19.2538 211.409 19.3068C211.549 19.3598 211.705 19.3864 211.875 19.3864C212.004 19.3864 212.121 19.3769 212.227 19.358C212.337 19.339 212.42 19.322 212.477 19.3068L212.824 20.9148C212.714 20.9527 212.557 20.9943 212.352 21.0398C212.152 21.0852 211.905 21.1117 211.614 21.1193C211.098 21.1345 210.634 21.0568 210.222 20.8864C209.809 20.7121 209.481 20.4432 209.239 20.0795C209 19.7159 208.883 19.2614 208.886 18.7159V10.1818ZM221.158 14.5795L219.283 14.7841C219.23 14.5947 219.137 14.4167 219.004 14.25C218.875 14.0833 218.701 13.9489 218.482 13.8466C218.262 13.7443 217.993 13.6932 217.675 13.6932C217.247 13.6932 216.887 13.786 216.595 13.9716C216.307 14.1572 216.165 14.3977 216.169 14.6932C216.165 14.947 216.258 15.1534 216.447 15.3125C216.641 15.4716 216.959 15.6023 217.402 15.7045L218.891 16.0227C219.716 16.2008 220.33 16.483 220.732 16.8693C221.137 17.2557 221.341 17.7614 221.345 18.3864C221.341 18.9356 221.18 19.4205 220.862 19.8409C220.548 20.2576 220.11 20.5833 219.55 20.8182C218.989 21.053 218.345 21.1705 217.618 21.1705C216.55 21.1705 215.69 20.947 215.038 20.5C214.387 20.0492 213.999 19.4223 213.874 18.6193L215.879 18.4261C215.97 18.8201 216.163 19.1174 216.459 19.3182C216.754 19.5189 217.139 19.6193 217.612 19.6193C218.101 19.6193 218.493 19.5189 218.788 19.3182C219.088 19.1174 219.237 18.8693 219.237 18.5739C219.237 18.3239 219.141 18.1174 218.947 17.9545C218.758 17.7917 218.463 17.6667 218.061 17.5795L216.572 17.267C215.735 17.0928 215.116 16.7992 214.714 16.3864C214.313 15.9697 214.114 15.4432 214.118 14.8068C214.114 14.2689 214.26 13.803 214.555 13.4091C214.855 13.0114 215.269 12.7045 215.8 12.4886C216.334 12.2689 216.949 12.1591 217.646 12.1591C218.669 12.1591 219.474 12.3769 220.061 12.8125C220.652 13.2481 221.018 13.8371 221.158 14.5795Z" fill="white"/>
<path fill-rule="evenodd" clip-rule="evenodd" d="M19.137 22.3076C15.2078 22.3076 12.0225 19.11 12.0225 15.1573C12.0225 11.2047 15.2078 8 19.137 8H27.4074C31.3401 8 34.5114 11.2047 34.5114 15.1573C34.5114 19.11 31.3401 22.3111 27.4074 22.3111L19.137 22.3076ZM27.2188 19.7896C29.7685 19.7896 31.8273 17.714 31.8273 15.1573C31.8273 12.5971 29.7685 10.5286 27.2188 10.5286H19.3203C16.7777 10.5286 14.7171 12.5971 14.7171 15.1573C14.7171 17.714 16.7777 19.7896 19.3203 19.7896H27.2188Z" fill="#C74634"/>
</g>
<defs>
<clipPath id="clip0_9413_1317">
<rect width="238" height="30" fill="white"/>
</clipPath>
</defs>
</svg>
