<svg width="207" height="30" viewBox="0 0 207 30" fill="none" xmlns="http://www.w3.org/2000/svg">
<g clip-path="url(#clip0_9413_1317)">
<path d="M204 0H3C1.34315 0 0 1.34315 0 3V27C0 28.6569 1.34315 30 3 30H204C205.657 30 207 28.6569 207 27V3C207 1.34315 205.657 0 204 0Z" fill="#2C2925"/>
<path fill-rule="evenodd" clip-rule="evenodd" d="M19.137 22.1521C15.2078 22.1521 12.0225 18.9545 12.0225 15.0018C12.0225 11.0492 15.2078 7.84448 19.137 7.84448H27.4074C31.3401 7.84448 34.5114 11.0492 34.5114 15.0018C34.5114 18.9545 31.3401 22.1556 27.4074 22.1556L19.137 22.1521ZM27.2188 19.6341C29.7685 19.6341 31.8273 17.5585 31.8273 15.0018C31.8273 12.4416 29.7685 10.3731 27.2188 10.3731H19.3203C16.7777 10.3731 14.7171 12.4416 14.7171 15.0018C14.7171 17.5585 16.7777 19.6341 19.3203 19.6341H27.2188Z" fill="#C74634"/>
<path d="M45.4418 10.2727V19H43.8608V10.2727H45.4418ZM48.6282 15.1648V19H47.0856V12.4545H48.56V13.5668H48.6367C48.7873 13.2003 49.0273 12.9091 49.3569 12.6932C49.6893 12.4773 50.0998 12.3693 50.5884 12.3693C51.0401 12.3693 51.4336 12.4659 51.7688 12.6591C52.1069 12.8523 52.3683 13.1321 52.5529 13.4986C52.7404 13.8651 52.8327 14.3097 52.8299 14.8324V19H51.2873V15.071C51.2873 14.6335 51.1737 14.2912 50.9464 14.044C50.7219 13.7969 50.4109 13.6733 50.0131 13.6733C49.7433 13.6733 49.5032 13.733 49.293 13.8523C49.0856 13.9687 48.9222 14.1378 48.8029 14.3594C48.6864 14.581 48.6282 14.8494 48.6282 15.1648ZM59.5714 14.1847L58.1651 14.3381C58.1254 14.196 58.0558 14.0625 57.9563 13.9375C57.8597 13.8125 57.729 13.7116 57.5643 13.6349C57.3995 13.5582 57.1978 13.5199 56.9592 13.5199C56.6381 13.5199 56.3683 13.5895 56.1495 13.7287C55.9336 13.8679 55.8271 14.0483 55.8299 14.2699C55.8271 14.4602 55.8967 14.6151 56.0387 14.7344C56.1836 14.8537 56.4222 14.9517 56.7546 15.0284L57.8711 15.267C58.4904 15.4006 58.9506 15.6122 59.2518 15.902C59.5558 16.1918 59.7092 16.571 59.712 17.0398C59.7092 17.4517 59.5884 17.8153 59.3498 18.1307C59.114 18.4432 58.7859 18.6875 58.3654 18.8636C57.945 19.0398 57.462 19.1278 56.9165 19.1278C56.1154 19.1278 55.4705 18.9602 54.9819 18.625C54.4933 18.2869 54.2021 17.8168 54.1083 17.2145L55.6126 17.0696C55.6808 17.3651 55.8256 17.5881 56.0472 17.7386C56.2688 17.8892 56.5572 17.9645 56.9123 17.9645C57.2788 17.9645 57.5728 17.8892 57.7944 17.7386C58.0188 17.5881 58.131 17.402 58.131 17.1804C58.131 16.9929 58.0586 16.8381 57.9137 16.7159C57.7717 16.5937 57.5501 16.5 57.2489 16.4347L56.1325 16.2003C55.5046 16.0696 55.0401 15.8494 54.739 15.5398C54.4379 15.2273 54.2887 14.8324 54.2915 14.3551C54.2887 13.9517 54.3981 13.6023 54.6197 13.3068C54.8441 13.0085 55.1552 12.7784 55.5529 12.6165C55.9535 12.4517 56.4151 12.3693 56.9379 12.3693C57.7049 12.3693 58.3086 12.5327 58.7489 12.8594C59.1921 13.1861 59.4663 13.6278 59.5714 14.1847ZM64.2525 12.4545V13.6477H60.4897V12.4545H64.2525ZM61.4187 10.8864H62.9613V17.0312C62.9613 17.2386 62.9925 17.3977 63.055 17.5085C63.1204 17.6165 63.2056 17.6903 63.3107 17.7301C63.4158 17.7699 63.5323 17.7898 63.6602 17.7898C63.7567 17.7898 63.8448 17.7827 63.9244 17.7685C64.0067 17.7543 64.0692 17.7415 64.1119 17.7301L64.3718 18.9361C64.2894 18.9645 64.1715 18.9957 64.0181 19.0298C63.8675 19.0639 63.6829 19.0838 63.4641 19.0895C63.0778 19.1009 62.7298 19.0426 62.4201 18.9148C62.1104 18.7841 61.8647 18.5824 61.6829 18.3097C61.5039 18.0369 61.4158 17.696 61.4187 17.2869V10.8864ZM67.4261 19.1321C67.0114 19.1321 66.6378 19.0582 66.3054 18.9105C65.9759 18.7599 65.7145 18.5384 65.5213 18.2457C65.331 17.9531 65.2358 17.5923 65.2358 17.1634C65.2358 16.794 65.304 16.4886 65.4403 16.2472C65.5767 16.0057 65.7628 15.8125 65.9986 15.6676C66.2344 15.5227 66.5 15.4134 66.7955 15.3395C67.0938 15.2628 67.402 15.2074 67.7202 15.1733C68.1037 15.1335 68.4148 15.098 68.6534 15.0668C68.892 15.0327 69.0653 14.9815 69.1733 14.9134C69.2841 14.8423 69.3395 14.733 69.3395 14.5852V14.5597C69.3395 14.2386 69.2443 13.9901 69.054 13.8139C68.8636 13.6378 68.5895 13.5497 68.2315 13.5497C67.8537 13.5497 67.554 13.6321 67.3324 13.7969C67.1136 13.9616 66.9659 14.1562 66.8892 14.3807L65.4489 14.1761C65.5625 13.7784 65.75 13.446 66.0114 13.179C66.2727 12.9091 66.5923 12.7074 66.9702 12.5739C67.348 12.4375 67.7656 12.3693 68.223 12.3693C68.5384 12.3693 68.8523 12.4062 69.1648 12.4801C69.4773 12.554 69.7628 12.6761 70.0213 12.8466C70.2798 13.0142 70.4872 13.2429 70.6435 13.5327C70.8026 13.8224 70.8821 14.1847 70.8821 14.6193V19H69.3991V18.1009H69.348C69.2543 18.2827 69.1222 18.4531 68.9517 18.6122C68.7841 18.7685 68.5724 18.8949 68.3168 18.9915C68.0639 19.0852 67.767 19.1321 67.4261 19.1321ZM67.8267 17.9986C68.1364 17.9986 68.4048 17.9375 68.6321 17.8153C68.8594 17.6903 69.0341 17.5256 69.1562 17.321C69.2812 17.1165 69.3438 16.8935 69.3438 16.652V15.8807C69.2955 15.9205 69.2131 15.9574 69.0966 15.9915C68.983 16.0256 68.8551 16.0554 68.7131 16.081C68.571 16.1065 68.4304 16.1293 68.2912 16.1491C68.152 16.169 68.0313 16.1861 67.929 16.2003C67.6989 16.2315 67.4929 16.2827 67.3111 16.3537C67.1293 16.4247 66.9858 16.5241 66.8807 16.652C66.7756 16.777 66.723 16.9389 66.723 17.1378C66.723 17.4219 66.8267 17.6364 67.0341 17.7812C67.2415 17.9261 67.5057 17.9986 67.8267 17.9986ZM73.9759 10.2727V19H72.4332V10.2727H73.9759ZM77.1048 10.2727V19H75.5621V10.2727H77.1048ZM89.5341 14.6364C89.5341 15.5767 89.358 16.3821 89.0057 17.0526C88.6563 17.7202 88.179 18.2315 87.5739 18.5866C86.9716 18.9418 86.2884 19.1193 85.5241 19.1193C84.7599 19.1193 84.0753 18.9418 83.4702 18.5866C82.8679 18.2287 82.3906 17.7159 82.0384 17.0483C81.6889 16.3778 81.5142 15.5739 81.5142 14.6364C81.5142 13.696 81.6889 12.892 82.0384 12.2244C82.3906 11.554 82.8679 11.0412 83.4702 10.6861C84.0753 10.331 84.7599 10.1534 85.5241 10.1534C86.2884 10.1534 86.9716 10.331 87.5739 10.6861C88.179 11.0412 88.6563 11.554 89.0057 12.2244C89.358 12.892 89.5341 13.696 89.5341 14.6364ZM87.9446 14.6364C87.9446 13.9744 87.8409 13.4162 87.6335 12.9616C87.429 12.5043 87.1449 12.1591 86.7812 11.9261C86.4176 11.6903 85.9986 11.5724 85.5241 11.5724C85.0497 11.5724 84.6307 11.6903 84.267 11.9261C83.9034 12.1591 83.6179 12.5043 83.4105 12.9616C83.206 13.4162 83.1037 13.9744 83.1037 14.6364C83.1037 15.2983 83.206 15.858 83.4105 16.3153C83.6179 16.7699 83.9034 17.1151 84.267 17.3509C84.6307 17.5838 85.0497 17.7003 85.5241 17.7003C85.9986 17.7003 86.4176 17.5838 86.7812 17.3509C87.1449 17.1151 87.429 16.7699 87.6335 16.3153C87.8409 15.858 87.9446 15.2983 87.9446 14.6364ZM98.4989 13.2173H96.9052C96.8597 12.956 96.7759 12.7244 96.6538 12.5227C96.5316 12.3182 96.3796 12.1449 96.1978 12.0028C96.016 11.8608 95.8086 11.7543 95.5756 11.6832C95.3455 11.6094 95.0969 11.5724 94.8299 11.5724C94.3555 11.5724 93.935 11.6918 93.5685 11.9304C93.2021 12.1662 92.9151 12.5128 92.7077 12.9702C92.5004 13.4247 92.3967 13.9801 92.3967 14.6364C92.3967 15.304 92.5004 15.8665 92.7077 16.3239C92.918 16.7784 93.2049 17.1222 93.5685 17.3551C93.935 17.5852 94.354 17.7003 94.8256 17.7003C95.087 17.7003 95.3313 17.6662 95.5586 17.598C95.7887 17.527 95.9947 17.4233 96.1765 17.2869C96.3612 17.1506 96.516 16.983 96.641 16.7841C96.7688 16.5852 96.8569 16.358 96.9052 16.1023L98.4989 16.1108C98.4393 16.5256 98.31 16.9148 98.1112 17.2784C97.9151 17.642 97.658 17.9631 97.3398 18.2415C97.0217 18.517 96.6495 18.733 96.2234 18.8892C95.7972 19.0426 95.3242 19.1193 94.8043 19.1193C94.0373 19.1193 93.3526 18.9418 92.7504 18.5866C92.1481 18.2315 91.6737 17.7188 91.3271 17.0483C90.9805 16.3778 90.8072 15.5739 90.8072 14.6364C90.8072 13.696 90.9819 12.892 91.3313 12.2244C91.6808 11.554 92.1566 11.0412 92.7589 10.6861C93.3612 10.331 94.043 10.1534 94.8043 10.1534C95.2901 10.1534 95.7418 10.2216 96.1594 10.358C96.5771 10.4943 96.9492 10.6946 97.2759 10.9588C97.6026 11.2202 97.8711 11.5412 98.0813 11.9219C98.2944 12.2997 98.4336 12.7315 98.4989 13.2173ZM101.528 10.2727V19H99.9467V10.2727H101.528ZM107.337 19H105.65L108.722 10.2727H110.674L113.75 19H112.063L109.732 12.0625H109.664L107.337 19ZM107.392 15.5781H111.995V16.848H107.392V15.5781ZM116.481 10.2727V19H114.9V10.2727H116.481ZM121.169 19V10.2727H124.51C125.141 10.2727 125.665 10.3722 126.083 10.571C126.503 10.767 126.817 11.0355 127.025 11.3764C127.235 11.7173 127.34 12.1037 127.34 12.5355C127.34 12.8906 127.272 13.1946 127.135 13.4474C126.999 13.6974 126.816 13.9006 126.586 14.0568C126.355 14.2131 126.098 14.3253 125.814 14.3935V14.4787C126.124 14.4957 126.421 14.5909 126.705 14.7642C126.992 14.9347 127.226 15.1761 127.408 15.4886C127.59 15.8011 127.681 16.179 127.681 16.6222C127.681 17.0739 127.571 17.4801 127.353 17.8409C127.134 18.1989 126.804 18.4815 126.364 18.6889C125.924 18.8963 125.37 19 124.702 19H121.169ZM122.75 17.679H124.451C125.025 17.679 125.438 17.5696 125.691 17.3509C125.946 17.1293 126.074 16.8452 126.074 16.4986C126.074 16.2401 126.01 16.0071 125.882 15.7997C125.755 15.5895 125.573 15.4247 125.337 15.3054C125.101 15.1832 124.82 15.1222 124.493 15.1222H122.75V17.679ZM122.75 13.9844H124.314C124.587 13.9844 124.833 13.9347 125.051 13.8352C125.27 13.733 125.442 13.5895 125.567 13.4048C125.695 13.2173 125.759 12.9957 125.759 12.7401C125.759 12.402 125.64 12.1236 125.401 11.9048C125.165 11.6861 124.814 11.5767 124.348 11.5767H122.75V13.9844ZM130.531 10.2727V19H128.988V10.2727H130.531ZM136.289 16.2472V12.4545H137.831V19H136.336V17.8366H136.267C136.12 18.2031 135.877 18.5028 135.539 18.7358C135.203 18.9687 134.79 19.0852 134.299 19.0852C133.87 19.0852 133.49 18.9901 133.161 18.7997C132.834 18.6065 132.578 18.3267 132.394 17.9602C132.209 17.5909 132.117 17.1449 132.117 16.6222V12.4545H133.659V16.3835C133.659 16.7983 133.773 17.1278 134 17.3722C134.228 17.6165 134.526 17.7386 134.895 17.7386C135.123 17.7386 135.343 17.6832 135.556 17.5724C135.769 17.4616 135.944 17.2969 136.08 17.0781C136.219 16.8565 136.289 16.5795 136.289 16.2472ZM142.315 19.1278C141.659 19.1278 141.092 18.9915 140.615 18.7188C140.141 18.4432 139.776 18.054 139.52 17.5511C139.264 17.0455 139.136 16.4503 139.136 15.7656C139.136 15.0923 139.264 14.5014 139.52 13.9929C139.778 13.4815 140.139 13.0838 140.602 12.7997C141.065 12.5128 141.609 12.3693 142.234 12.3693C142.638 12.3693 143.018 12.4347 143.376 12.5653C143.737 12.6932 144.055 12.892 144.331 13.1619C144.609 13.4318 144.828 13.7756 144.987 14.1932C145.146 14.608 145.226 15.1023 145.226 15.6761V16.1491H139.861V15.1094H143.747C143.744 14.8139 143.68 14.5511 143.555 14.321C143.43 14.0881 143.256 13.9048 143.031 13.7713C142.81 13.6378 142.551 13.571 142.256 13.571C141.94 13.571 141.663 13.6477 141.425 13.8011C141.186 13.9517 141 14.1506 140.866 14.3977C140.736 14.642 140.669 14.9105 140.666 15.2031V16.1108C140.666 16.4915 140.736 16.8182 140.875 17.0909C141.014 17.3608 141.209 17.5682 141.459 17.7131C141.709 17.8551 142.001 17.9261 142.337 17.9261C142.561 17.9261 142.764 17.8949 142.946 17.8324C143.128 17.767 143.286 17.6719 143.419 17.5469C143.553 17.4219 143.653 17.267 143.722 17.0824L145.162 17.2443C145.071 17.625 144.898 17.9574 144.642 18.2415C144.389 18.5227 144.065 18.7415 143.67 18.8977C143.276 19.0511 142.824 19.1278 142.315 19.1278ZM146.531 21.4545V12.4545H148.048V13.5369H148.137C148.217 13.3778 148.329 13.2088 148.474 13.0298C148.619 12.848 148.815 12.6932 149.062 12.5653C149.309 12.4347 149.625 12.3693 150.008 12.3693C150.514 12.3693 150.97 12.4986 151.376 12.7571C151.785 13.0128 152.109 13.392 152.348 13.8949C152.589 14.3949 152.71 15.0085 152.71 15.7358C152.71 16.4545 152.592 17.0653 152.356 17.5682C152.12 18.071 151.799 18.4545 151.393 18.7188C150.987 18.983 150.527 19.1151 150.012 19.1151C149.637 19.1151 149.326 19.0526 149.079 18.9276C148.832 18.8026 148.633 18.652 148.483 18.4759C148.335 18.2969 148.22 18.1278 148.137 17.9688H148.074V21.4545H146.531ZM148.044 15.7273C148.044 16.1506 148.103 16.5213 148.223 16.8395C148.345 17.1577 148.52 17.4062 148.747 17.5852C148.977 17.7614 149.255 17.8494 149.582 17.8494C149.923 17.8494 150.208 17.7585 150.439 17.5767C150.669 17.392 150.842 17.1406 150.958 16.8224C151.078 16.5014 151.137 16.1364 151.137 15.7273C151.137 15.321 151.079 14.9602 150.963 14.6449C150.846 14.3295 150.673 14.0824 150.443 13.9034C150.213 13.7244 149.926 13.6349 149.582 13.6349C149.252 13.6349 148.973 13.7216 148.743 13.8949C148.512 14.0682 148.338 14.3111 148.218 14.6236C148.102 14.9361 148.044 15.304 148.044 15.7273ZM154.031 19V12.4545H155.527V13.5455H155.595C155.714 13.1676 155.919 12.8764 156.208 12.6719C156.501 12.4645 156.835 12.3608 157.21 12.3608C157.295 12.3608 157.39 12.3651 157.495 12.3736C157.603 12.3793 157.693 12.3892 157.764 12.4034V13.8224C157.699 13.7997 157.595 13.7798 157.453 13.7628C157.314 13.7429 157.179 13.733 157.048 13.733C156.767 13.733 156.514 13.794 156.289 13.9162C156.068 14.0355 155.893 14.2017 155.765 14.4148C155.637 14.6278 155.574 14.8736 155.574 15.152V19H154.031ZM158.789 19V12.4545H160.331V19H158.789ZM159.564 11.5256C159.32 11.5256 159.11 11.4446 158.934 11.2827C158.757 11.1179 158.669 10.9205 158.669 10.6903C158.669 10.4574 158.757 10.2599 158.934 10.098C159.11 9.93324 159.32 9.85085 159.564 9.85085C159.811 9.85085 160.022 9.93324 160.195 10.098C160.371 10.2599 160.459 10.4574 160.459 10.6903C160.459 10.9205 160.371 11.1179 160.195 11.2827C160.022 11.4446 159.811 11.5256 159.564 11.5256ZM163.46 15.1648V19H161.918V12.4545H163.392V13.5668H163.469C163.619 13.2003 163.859 12.9091 164.189 12.6932C164.521 12.4773 164.932 12.3693 165.42 12.3693C165.872 12.3693 166.266 12.4659 166.601 12.6591C166.939 12.8523 167.2 13.1321 167.385 13.4986C167.572 13.8651 167.665 14.3097 167.662 14.8324V19H166.119V15.071C166.119 14.6335 166.006 14.2912 165.778 14.044C165.554 13.7969 165.243 13.6733 164.845 13.6733C164.575 13.6733 164.335 13.733 164.125 13.8523C163.918 13.9687 163.754 14.1378 163.635 14.3594C163.518 14.581 163.46 14.8494 163.46 15.1648ZM172.499 12.4545V13.6477H168.736V12.4545H172.499ZM169.665 10.8864H171.207V17.0312C171.207 17.2386 171.239 17.3977 171.301 17.5085C171.366 17.6165 171.452 17.6903 171.557 17.7301C171.662 17.7699 171.778 17.7898 171.906 17.7898C172.003 17.7898 172.091 17.7827 172.17 17.7685C172.253 17.7543 172.315 17.7415 172.358 17.7301L172.618 18.9361C172.536 18.9645 172.418 18.9957 172.264 19.0298C172.114 19.0639 171.929 19.0838 171.71 19.0895C171.324 19.1009 170.976 19.0426 170.666 18.9148C170.357 18.7841 170.111 18.5824 169.929 18.3097C169.75 18.0369 169.662 17.696 169.665 17.2869V10.8864ZM178.868 14.1847L177.462 14.3381C177.422 14.196 177.353 14.0625 177.253 13.9375C177.157 13.8125 177.026 13.7116 176.861 13.6349C176.696 13.5582 176.495 13.5199 176.256 13.5199C175.935 13.5199 175.665 13.5895 175.446 13.7287C175.23 13.8679 175.124 14.0483 175.127 14.2699C175.124 14.4602 175.194 14.6151 175.336 14.7344C175.48 14.8537 175.719 14.9517 176.051 15.0284L177.168 15.267C177.787 15.4006 178.248 15.6122 178.549 15.902C178.853 16.1918 179.006 16.571 179.009 17.0398C179.006 17.4517 178.885 17.8153 178.647 18.1307C178.411 18.4432 178.083 18.6875 177.662 18.8636C177.242 19.0398 176.759 19.1278 176.213 19.1278C175.412 19.1278 174.767 18.9602 174.279 18.625C173.79 18.2869 173.499 17.8168 173.405 17.2145L174.909 17.0696C174.978 17.3651 175.123 17.5881 175.344 17.7386C175.566 17.8892 175.854 17.9645 176.209 17.9645C176.576 17.9645 176.87 17.8892 177.091 17.7386C177.316 17.5881 177.428 17.402 177.428 17.1804C177.428 16.9929 177.355 16.8381 177.211 16.7159C177.069 16.5937 176.847 16.5 176.546 16.4347L175.429 16.2003C174.801 16.0696 174.337 15.8494 174.036 15.5398C173.735 15.2273 173.586 14.8324 173.588 14.3551C173.586 13.9517 173.695 13.6023 173.917 13.3068C174.141 13.0085 174.452 12.7784 174.85 12.6165C175.25 12.4517 175.712 12.3693 176.235 12.3693C177.002 12.3693 177.605 12.5327 178.046 12.8594C178.489 13.1861 178.763 13.6278 178.868 14.1847Z" fill="white"/>
</g>
<defs>
<clipPath id="clip0_9413_1317">
<rect width="207" height="30" fill="white"/>
</clipPath>
</defs>
</svg>
